<?xml version="1.0" encoding="UTF-8" standalone="no"?>
<svg
   width="24"
   height="24"
   viewBox="0 0 24 24"
   fill="none"
   stroke="currentColor"
   stroke-width="2"
   stroke-linecap="round"
   stroke-linejoin="round"
   class="feather feather-monitor"
   version="1.1"
   id="svg15"
   sodipodi:docname="monitor_system.svg"
   inkscape:version="1.1.2 (b8e25be8, 2022-02-05)"
   xmlns:inkscape="http://www.inkscape.org/namespaces/inkscape"
   xmlns:sodipodi="http://sodipodi.sourceforge.net/DTD/sodipodi-0.dtd"
   xmlns="http://www.w3.org/2000/svg"
   xmlns:svg="http://www.w3.org/2000/svg">
  <defs
     id="defs19" />
  <sodipodi:namedview
     id="namedview17"
     pagecolor="#ffffff"
     bordercolor="#666666"
     borderopacity="1.0"
     inkscape:pageshadow="2"
     inkscape:pageopacity="0.0"
     inkscape:pagecheckerboard="0"
     showgrid="false"
     inkscape:zoom="29.958333"
     inkscape:cx="12.467316"
     inkscape:cy="11.315716"
     inkscape:window-width="1542"
     inkscape:window-height="1162"
     inkscape:window-x="0"
     inkscape:window-y="44"
     inkscape:window-maximized="0"
     inkscape:current-layer="svg15" />
  <rect
     x="2"
     y="3"
     width="20"
     height="14"
     rx="2"
     ry="2"
     id="rect9" />
  <line
     x1="8"
     y1="21"
     x2="16"
     y2="21"
     id="line11" />
  <line
     x1="12"
     y1="17"
     x2="12"
     y2="21"
     id="line13" />
  <g
     style="fill:none;stroke:currentColor;stroke-width:2;stroke-linecap:round;stroke-linejoin:round"
     id="g128"
     transform="matrix(0.45833333,0,0,0.45833333,6.5,4.5)">
    <line
       x1="12"
       y1="1"
       x2="12"
       y2="3"
       id="line97" />
    <line
       x1="12"
       y1="21"
       x2="12"
       y2="23"
       id="line99" />
    <line
       x1="4.2199998"
       y1="4.2199998"
       x2="5.6399999"
       y2="5.6399999"
       id="line101" />
    <line
       x1="18.360001"
       y1="18.360001"
       x2="19.780001"
       y2="19.780001"
       id="line103" />
    <line
       x1="1"
       y1="12"
       x2="3"
       y2="12"
       id="line105" />
    <line
       x1="21"
       y1="12"
       x2="23"
       y2="12"
       id="line107" />
    <line
       x1="4.2199998"
       y1="19.780001"
       x2="5.6399999"
       y2="18.360001"
       id="line109" />
    <line
       x1="18.360001"
       y1="5.6399999"
       x2="19.780001"
       y2="4.2199998"
       id="line111" />
  </g>
  <g
     style="fill:none;stroke:currentColor;stroke-width:2;stroke-linecap:round;stroke-linejoin:round"
     id="g203"
     transform="matrix(0.30093836,0,0,0.30093836,8.3793621,6.3981172)">
    <path
       d="M 21,12.79 A 9,9 0 1 1 11.21,3 7,7 0 0 0 21,12.79 Z"
       id="path194" />
  </g>
</svg>
