<?xml version="1.0" encoding="UTF-8" standalone="no"?>
<svg
   xmlns:dc="http://purl.org/dc/elements/1.1/"
   xmlns:cc="http://creativecommons.org/ns#"
   xmlns:rdf="http://www.w3.org/1999/02/22-rdf-syntax-ns#"
   xmlns:svg="http://www.w3.org/2000/svg"
   xmlns="http://www.w3.org/2000/svg"
   viewBox="0 0 213.33333 213.33333"
   height="213.33333"
   width="213.33333"
   xml:space="preserve"
   id="svg2"
   version="1.1"><metadata
     id="metadata8"><rdf:RDF><cc:Work
         rdf:about=""><dc:format>image/svg+xml</dc:format><dc:type
           rdf:resource="http://purl.org/dc/dcmitype/StillImage" /></cc:Work></rdf:RDF></metadata><defs
     id="defs6" /><g
     transform="matrix(1.3333333,0,0,-1.3333333,0,213.33333)"
     id="g10"><path
       id="path12"
       style="fill:#292929;fill-opacity:1;fill-rule:nonzero;stroke:none"
       d="m 70.5,109.5 h 19 v -79 h -19 z" /><path
       id="path14"
       style="fill:#292929;fill-opacity:1;fill-rule:nonzero;stroke:none"
       d="M 90,110 H 70 V 30 H 90 Z M 89,31 H 71 v 78 h 18 z" /><g
       transform="translate(70.5,129.5)"
       id="g16"><path
         id="path18"
         style="fill:#292929;fill-opacity:1;fill-rule:nonzero;stroke:none"
         d="M 0,0 V -20 H 19 Z" /></g><g
       transform="translate(70.5,129.5)"
       id="g20"><path
         id="path22"
         style="fill:none;stroke:#292929;stroke-width:1;stroke-linecap:round;stroke-linejoin:miter;stroke-miterlimit:10;stroke-dasharray:none;stroke-opacity:1"
         d="M 0,0 V -20 H 19 Z" /></g><path
       id="path24"
       style="fill:#292929;fill-opacity:1;fill-rule:nonzero;stroke:none"
       d="m 135.5,109.5 h 19 v -79 h -19 z" /><path
       id="path26"
       style="fill:#292929;fill-opacity:1;fill-rule:nonzero;stroke:none"
       d="M 155,110 H 135 V 30 h 20 z m -1,-79 h -18 v 78 h 18 z" /><g
       transform="translate(154.5,129.5)"
       id="g28"><path
         id="path30"
         style="fill:#292929;fill-opacity:1;fill-rule:nonzero;stroke:none"
         d="M 0,0 V -20 H -19 Z" /></g><g
       transform="translate(154.5,129.5)"
       id="g32"><path
         id="path34"
         style="fill:none;stroke:#292929;stroke-width:1;stroke-linecap:round;stroke-linejoin:miter;stroke-miterlimit:10;stroke-dasharray:none;stroke-opacity:1"
         d="M 0,0 V -20 H -19 Z" /></g><g
       transform="translate(126.5713,72.5713)"
       id="g36"><path
         id="path38"
         style="fill:#292929;fill-opacity:1;fill-rule:nonzero;stroke:none"
         d="m 0,0 -14.143,-14.143 -37.313,37.314 14.143,14.142 z" /></g><g
       transform="translate(126.5713,72.5713)"
       id="g40"><path
         id="path42"
         style="fill:none;stroke:#292929;stroke-width:1;stroke-linecap:butt;stroke-linejoin:miter;stroke-miterlimit:10;stroke-dasharray:none;stroke-opacity:1"
         d="m 0,0 -14.143,-14.143 -37.313,37.314 14.143,14.142 z" /></g><g
       transform="translate(98.6592,72.5713)"
       id="g44"><path
         id="path46"
         style="fill:#292929;fill-opacity:1;fill-rule:nonzero;stroke:none"
         d="M 0,0 14.143,-14.143 51.456,23.171 37.313,37.313 Z" /></g><g
       transform="translate(98.6592,72.5713)"
       id="g48"><path
         id="path50"
         style="fill:none;stroke:#292929;stroke-width:1;stroke-linecap:butt;stroke-linejoin:miter;stroke-miterlimit:10;stroke-dasharray:none;stroke-opacity:1"
         d="M 0,0 14.143,-14.143 51.456,23.171 37.313,37.313 Z" /></g><path
       id="path52"
       style="fill:#292929;fill-opacity:1;fill-rule:nonzero;stroke:#292929;stroke-width:1;stroke-linecap:butt;stroke-linejoin:miter;stroke-miterlimit:10;stroke-dasharray:none;stroke-opacity:1"
       d="m 26.5,30.5 h -20 v 100 h 20 z" /><path
       id="path54"
       style="fill:#292929;fill-opacity:1;fill-rule:nonzero;stroke:#292929;stroke-width:1;stroke-linecap:butt;stroke-linejoin:miter;stroke-miterlimit:10;stroke-dasharray:none;stroke-opacity:1"
       d="m 61.5,70.5 h -55 v 20 h 55 z" /></g></svg>